<svg xmlns="http://www.w3.org/2000/svg" viewBox="0 0 800 560" role="img" aria-label="bedroom interior illustration">
<title>bedroom interior illustration</title>

  <rect width="800" height="400" fill="#EFEDDC"/>
  <rect y="326" width="800" height="74" fill="#E2E0CB" opacity=".55"/>
  <rect y="322" width="800" height="4" fill="#8B5E3C" opacity=".5"/>
      
  <defs><clipPath id="a598"><path d="M262,360 L262,225 C262,135 306.16,78 386.2,66 C394.48,54 405.52,54 413.8,66 C493.84,78 538,135 538,225 L538,360 Z"/></clipPath></defs>
  <path d="M253,360 L253,220.95 C253,128.25 300.04,69.54 385.3,57.18 C394.12,44.82 405.88,44.82 414.7,57.18 C499.96,69.54 547,128.25 547,220.95 L547,360 Z" fill="#8B5E3C" opacity=".9"/>
  <path d="M262,360 L262,225 C262,135 306.16,78 386.2,66 C394.48,54 405.52,54 413.8,66 C493.84,78 538,135 538,225 L538,360 Z" fill="#2E4A3B"/>
  <g clip-path="url(#a598)"><path d="M400,348 C395,277.2 405,218.2 400,178.08"
    stroke="#E9C079" stroke-width="4.5" fill="none" stroke-linecap="round"/><path d="M400,277.2 Q361.06,272.48 329.2,239.44"
        stroke="#E9C079" stroke-width="2.4" fill="none" stroke-linecap="round"/><ellipse cx="375.22" cy="266.57" rx="4.5" ry="8"
          fill="#E9C079" opacity=".75" transform="rotate(-32 375.22 266.57)"/><ellipse cx="352.56" cy="254.25" rx="4.5" ry="8"
          fill="#E9C079" opacity=".75" transform="rotate(-32 352.56 254.25)"/><ellipse cx="329.91" cy="234.19" rx="4.5" ry="8"
          fill="#E9C079" opacity=".75" transform="rotate(-32 329.91 234.19)"/><g transform="translate(329.2,235.44)"><ellipse cx="0" cy="-5.58" rx="2.7" ry="4.95" fill="#D8A03A" transform="rotate(0)"/><ellipse cx="0" cy="-5.58" rx="2.7" ry="4.95" fill="#D8A03A" transform="rotate(60)"/><ellipse cx="0" cy="-5.58" rx="2.7" ry="4.95" fill="#D8A03A" transform="rotate(120)"/><ellipse cx="0" cy="-5.58" rx="2.7" ry="4.95" fill="#D8A03A" transform="rotate(180)"/><ellipse cx="0" cy="-5.58" rx="2.7" ry="4.95" fill="#D8A03A" transform="rotate(240)"/><ellipse cx="0" cy="-5.58" rx="2.7" ry="4.95" fill="#D8A03A" transform="rotate(300)"/><circle r="2.34" fill="#E9C079"/></g><path d="M400,277.2 Q438.94,272.48 470.8,239.44"
        stroke="#E9C079" stroke-width="2.4" fill="none" stroke-linecap="round"/><ellipse cx="424.78" cy="266.57" rx="4.5" ry="8"
          fill="#E9C079" opacity=".75" transform="rotate(32 424.78 266.57)"/><ellipse cx="447.44" cy="254.25" rx="4.5" ry="8"
          fill="#E9C079" opacity=".75" transform="rotate(32 447.44 254.25)"/><ellipse cx="470.09" cy="234.19" rx="4.5" ry="8"
          fill="#E9C079" opacity=".75" transform="rotate(32 470.09 234.19)"/><g transform="translate(470.8,235.44)"><ellipse cx="0" cy="-5.58" rx="2.7" ry="4.95" fill="#D8A03A" transform="rotate(0)"/><ellipse cx="0" cy="-5.58" rx="2.7" ry="4.95" fill="#D8A03A" transform="rotate(60)"/><ellipse cx="0" cy="-5.58" rx="2.7" ry="4.95" fill="#D8A03A" transform="rotate(120)"/><ellipse cx="0" cy="-5.58" rx="2.7" ry="4.95" fill="#D8A03A" transform="rotate(180)"/><ellipse cx="0" cy="-5.58" rx="2.7" ry="4.95" fill="#D8A03A" transform="rotate(240)"/><ellipse cx="0" cy="-5.58" rx="2.7" ry="4.95" fill="#D8A03A" transform="rotate(300)"/><circle r="2.34" fill="#E9C079"/></g><path d="M400,239.44 Q368.85,234.72 343.36,206.4"
        stroke="#E9C079" stroke-width="2.4" fill="none" stroke-linecap="round"/><ellipse cx="380.18" cy="229.39" rx="4.5" ry="8"
          fill="#E9C079" opacity=".75" transform="rotate(-32 380.18 229.39)"/><ellipse cx="362.05" cy="218.61" rx="4.5" ry="8"
          fill="#E9C079" opacity=".75" transform="rotate(-32 362.05 218.61)"/><ellipse cx="343.93" cy="201.06" rx="4.5" ry="8"
          fill="#E9C079" opacity=".75" transform="rotate(-32 343.93 201.06)"/><g transform="translate(343.36,202.4)"><ellipse cx="0" cy="-5.58" rx="2.7" ry="4.95" fill="#D8A03A" transform="rotate(0)"/><ellipse cx="0" cy="-5.58" rx="2.7" ry="4.95" fill="#D8A03A" transform="rotate(60)"/><ellipse cx="0" cy="-5.58" rx="2.7" ry="4.95" fill="#D8A03A" transform="rotate(120)"/><ellipse cx="0" cy="-5.58" rx="2.7" ry="4.95" fill="#D8A03A" transform="rotate(180)"/><ellipse cx="0" cy="-5.58" rx="2.7" ry="4.95" fill="#D8A03A" transform="rotate(240)"/><ellipse cx="0" cy="-5.58" rx="2.7" ry="4.95" fill="#D8A03A" transform="rotate(300)"/><circle r="2.34" fill="#E9C079"/></g><path d="M400,239.44 Q431.15,234.72 456.64,206.4"
        stroke="#E9C079" stroke-width="2.4" fill="none" stroke-linecap="round"/><ellipse cx="419.82" cy="229.39" rx="4.5" ry="8"
          fill="#E9C079" opacity=".75" transform="rotate(32 419.82 229.39)"/><ellipse cx="437.95" cy="218.61" rx="4.5" ry="8"
          fill="#E9C079" opacity=".75" transform="rotate(32 437.95 218.61)"/><ellipse cx="456.07" cy="201.06" rx="4.5" ry="8"
          fill="#E9C079" opacity=".75" transform="rotate(32 456.07 201.06)"/><g transform="translate(456.64,202.4)"><ellipse cx="0" cy="-5.58" rx="2.7" ry="4.95" fill="#D8A03A" transform="rotate(0)"/><ellipse cx="0" cy="-5.58" rx="2.7" ry="4.95" fill="#D8A03A" transform="rotate(60)"/><ellipse cx="0" cy="-5.58" rx="2.7" ry="4.95" fill="#D8A03A" transform="rotate(120)"/><ellipse cx="0" cy="-5.58" rx="2.7" ry="4.95" fill="#D8A03A" transform="rotate(180)"/><ellipse cx="0" cy="-5.58" rx="2.7" ry="4.95" fill="#D8A03A" transform="rotate(240)"/><ellipse cx="0" cy="-5.58" rx="2.7" ry="4.95" fill="#D8A03A" transform="rotate(300)"/><circle r="2.34" fill="#E9C079"/></g><path d="M400,206.4 Q377.93,201.68 359.88,180.44"
        stroke="#E9C079" stroke-width="2.4" fill="none" stroke-linecap="round"/><ellipse cx="385.96" cy="197.22" rx="4.5" ry="8"
          fill="#E9C079" opacity=".75" transform="rotate(-32 385.96 197.22)"/><ellipse cx="373.12" cy="188.75" rx="4.5" ry="8"
          fill="#E9C079" opacity=".75" transform="rotate(-32 373.12 188.75)"/><ellipse cx="360.28" cy="174.96" rx="4.5" ry="8"
          fill="#E9C079" opacity=".75" transform="rotate(-32 360.28 174.96)"/><g transform="translate(359.88,176.44)"><ellipse cx="0" cy="-5.58" rx="2.7" ry="4.95" fill="#D8A03A" transform="rotate(0)"/><ellipse cx="0" cy="-5.58" rx="2.7" ry="4.95" fill="#D8A03A" transform="rotate(60)"/><ellipse cx="0" cy="-5.58" rx="2.7" ry="4.95" fill="#D8A03A" transform="rotate(120)"/><ellipse cx="0" cy="-5.58" rx="2.7" ry="4.95" fill="#D8A03A" transform="rotate(180)"/><ellipse cx="0" cy="-5.58" rx="2.7" ry="4.95" fill="#D8A03A" transform="rotate(240)"/><ellipse cx="0" cy="-5.58" rx="2.7" ry="4.95" fill="#D8A03A" transform="rotate(300)"/><circle r="2.34" fill="#E9C079"/></g><path d="M400,206.4 Q422.07,201.68 440.12,180.44"
        stroke="#E9C079" stroke-width="2.4" fill="none" stroke-linecap="round"/><ellipse cx="414.04" cy="197.22" rx="4.5" ry="8"
          fill="#E9C079" opacity=".75" transform="rotate(32 414.04 197.22)"/><ellipse cx="426.88" cy="188.75" rx="4.5" ry="8"
          fill="#E9C079" opacity=".75" transform="rotate(32 426.88 188.75)"/><ellipse cx="439.72" cy="174.96" rx="4.5" ry="8"
          fill="#E9C079" opacity=".75" transform="rotate(32 439.72 174.96)"/><g transform="translate(440.12,176.44)"><ellipse cx="0" cy="-5.58" rx="2.7" ry="4.95" fill="#D8A03A" transform="rotate(0)"/><ellipse cx="0" cy="-5.58" rx="2.7" ry="4.95" fill="#D8A03A" transform="rotate(60)"/><ellipse cx="0" cy="-5.58" rx="2.7" ry="4.95" fill="#D8A03A" transform="rotate(120)"/><ellipse cx="0" cy="-5.58" rx="2.7" ry="4.95" fill="#D8A03A" transform="rotate(180)"/><ellipse cx="0" cy="-5.58" rx="2.7" ry="4.95" fill="#D8A03A" transform="rotate(240)"/><ellipse cx="0" cy="-5.58" rx="2.7" ry="4.95" fill="#D8A03A" transform="rotate(300)"/><circle r="2.34" fill="#E9C079"/></g><g transform="translate(400,168.64)"><ellipse cx="0" cy="-7.44" rx="3.6" ry="6.6" fill="#D8A03A" transform="rotate(0)"/><ellipse cx="0" cy="-7.44" rx="3.6" ry="6.6" fill="#D8A03A" transform="rotate(60)"/><ellipse cx="0" cy="-7.44" rx="3.6" ry="6.6" fill="#D8A03A" transform="rotate(120)"/><ellipse cx="0" cy="-7.44" rx="3.6" ry="6.6" fill="#D8A03A" transform="rotate(180)"/><ellipse cx="0" cy="-7.44" rx="3.6" ry="6.6" fill="#D8A03A" transform="rotate(240)"/><ellipse cx="0" cy="-7.44" rx="3.6" ry="6.6" fill="#D8A03A" transform="rotate(300)"/><circle r="3.12" fill="#E9C079"/></g></g>
  <path d="M273,360 L273,229.95 C273,143.25 313.64,88.34 387.3,76.78 C394.92,65.22 405.08,65.22 412.7,76.78 C486.36,88.34 527,143.25 527,229.95 L527,360 Z" fill="none" stroke="#FFF7E8" stroke-width="1.6" opacity=".55"/>
      
  <rect x="117" y="145" width="92" height="106" rx="3" fill="#8B5E3C" />
  <rect x="122" y="150" width="82" height="96" rx="1" fill="#FFF7E8" />
  <g transform="translate(163,198)"><ellipse cx="0" cy="-14.24" rx="6.89" ry="12.63" fill="#C44536" transform="rotate(0)"/><ellipse cx="0" cy="-14.24" rx="6.89" ry="12.63" fill="#C44536" transform="rotate(60)"/><ellipse cx="0" cy="-14.24" rx="6.89" ry="12.63" fill="#C44536" transform="rotate(120)"/><ellipse cx="0" cy="-14.24" rx="6.89" ry="12.63" fill="#C44536" transform="rotate(180)"/><ellipse cx="0" cy="-14.24" rx="6.89" ry="12.63" fill="#C44536" transform="rotate(240)"/><ellipse cx="0" cy="-14.24" rx="6.89" ry="12.63" fill="#C44536" transform="rotate(300)"/><circle r="5.97" fill="#EAD9C1"/></g>
      <g>
    <line x1="640" y1="0" x2="640" y2="107" stroke="#B8862F" stroke-width="2.5"/>
    <path d="M614,120 Q640,81 666,120 Z" fill="#B8862F"/>
    <ellipse cx="640" cy="120" rx="26" ry="5" fill="#E9C079"/>
    <ellipse cx="640" cy="146" rx="39" ry="22" fill="#FFE9B0" opacity=".3"/>
  </g>
      <rect y="400" width="800" height="160" fill="#8B5E3C"/><line x1="0" y1="412" x2="800" y2="412" stroke="#7A5334" stroke-width="1.2" opacity=".4"/><line x1="74.18" y1="412" x2="74.18" y2="436" stroke="#7A5334" stroke-width="1.2" opacity=".28"/><line x1="54.65" y1="412" x2="54.65" y2="436" stroke="#7A5334" stroke-width="1.2" opacity=".28"/><line x1="505.69" y1="412" x2="505.69" y2="436" stroke="#7A5334" stroke-width="1.2" opacity=".28"/><line x1="244.38" y1="412" x2="244.38" y2="436" stroke="#7A5334" stroke-width="1.2" opacity=".28"/><line x1="0" y1="436" x2="800" y2="436" stroke="#7A5334" stroke-width="1.2" opacity=".4"/><line x1="259.18" y1="436" x2="259.18" y2="460" stroke="#7A5334" stroke-width="1.2" opacity=".28"/><line x1="171.42" y1="436" x2="171.42" y2="460" stroke="#7A5334" stroke-width="1.2" opacity=".28"/><line x1="409.65" y1="436" x2="409.65" y2="460" stroke="#7A5334" stroke-width="1.2" opacity=".28"/><line x1="762.75" y1="436" x2="762.75" y2="460" stroke="#7A5334" stroke-width="1.2" opacity=".28"/><line x1="0" y1="460" x2="800" y2="460" stroke="#7A5334" stroke-width="1.2" opacity=".4"/><line x1="660.83" y1="460" x2="660.83" y2="484" stroke="#7A5334" stroke-width="1.2" opacity=".28"/><line x1="7.15" y1="460" x2="7.15" y2="484" stroke="#7A5334" stroke-width="1.2" opacity=".28"/><line x1="566.95" y1="460" x2="566.95" y2="484" stroke="#7A5334" stroke-width="1.2" opacity=".28"/><line x1="166.99" y1="460" x2="166.99" y2="484" stroke="#7A5334" stroke-width="1.2" opacity=".28"/><line x1="0" y1="484" x2="800" y2="484" stroke="#7A5334" stroke-width="1.2" opacity=".4"/><line x1="69" y1="484" x2="69" y2="508" stroke="#7A5334" stroke-width="1.2" opacity=".28"/><line x1="788.37" y1="484" x2="788.37" y2="508" stroke="#7A5334" stroke-width="1.2" opacity=".28"/><line x1="671.56" y1="484" x2="671.56" y2="508" stroke="#7A5334" stroke-width="1.2" opacity=".28"/><line x1="377.79" y1="484" x2="377.79" y2="508" stroke="#7A5334" stroke-width="1.2" opacity=".28"/><line x1="0" y1="508" x2="800" y2="508" stroke="#7A5334" stroke-width="1.2" opacity=".4"/><line x1="593.05" y1="508" x2="593.05" y2="532" stroke="#7A5334" stroke-width="1.2" opacity=".28"/><line x1="44.26" y1="508" x2="44.26" y2="532" stroke="#7A5334" stroke-width="1.2" opacity=".28"/><line x1="361.9" y1="508" x2="361.9" y2="532" stroke="#7A5334" stroke-width="1.2" opacity=".28"/><line x1="524.16" y1="508" x2="524.16" y2="532" stroke="#7A5334" stroke-width="1.2" opacity=".28"/><line x1="0" y1="532" x2="800" y2="532" stroke="#7A5334" stroke-width="1.2" opacity=".4"/><line x1="788.47" y1="532" x2="788.47" y2="556" stroke="#7A5334" stroke-width="1.2" opacity=".28"/><line x1="170.39" y1="532" x2="170.39" y2="556" stroke="#7A5334" stroke-width="1.2" opacity=".28"/><line x1="676.75" y1="532" x2="676.75" y2="556" stroke="#7A5334" stroke-width="1.2" opacity=".28"/><line x1="184.15" y1="532" x2="184.15" y2="556" stroke="#7A5334" stroke-width="1.2" opacity=".28"/><line x1="0" y1="556" x2="800" y2="556" stroke="#7A5334" stroke-width="1.2" opacity=".4"/><line x1="152.62" y1="556" x2="152.62" y2="580" stroke="#7A5334" stroke-width="1.2" opacity=".28"/><line x1="626.5" y1="556" x2="626.5" y2="580" stroke="#7A5334" stroke-width="1.2" opacity=".28"/><line x1="125.76" y1="556" x2="125.76" y2="580" stroke="#7A5334" stroke-width="1.2" opacity=".28"/><line x1="572.23" y1="556" x2="572.23" y2="580" stroke="#7A5334" stroke-width="1.2" opacity=".28"/>
    <rect y="400" width="800" height="10" fill="#000" opacity=".07"/>
      
  <ellipse cx="400" cy="534" rx="251" ry="38" fill="#000" opacity=".05"/>
  <line x1="165" y1="506" x2="165" y2="499" stroke="#D8A03A" stroke-width="2"/><line x1="165" y1="562" x2="165" y2="569" stroke="#D8A03A" stroke-width="2"/><line x1="178" y1="506" x2="178" y2="499" stroke="#D8A03A" stroke-width="2"/><line x1="178" y1="562" x2="178" y2="569" stroke="#D8A03A" stroke-width="2"/><line x1="191" y1="506" x2="191" y2="499" stroke="#D8A03A" stroke-width="2"/><line x1="191" y1="562" x2="191" y2="569" stroke="#D8A03A" stroke-width="2"/><line x1="204" y1="506" x2="204" y2="499" stroke="#D8A03A" stroke-width="2"/><line x1="204" y1="562" x2="204" y2="569" stroke="#D8A03A" stroke-width="2"/><line x1="217" y1="506" x2="217" y2="499" stroke="#D8A03A" stroke-width="2"/><line x1="217" y1="562" x2="217" y2="569" stroke="#D8A03A" stroke-width="2"/><line x1="230" y1="506" x2="230" y2="499" stroke="#D8A03A" stroke-width="2"/><line x1="230" y1="562" x2="230" y2="569" stroke="#D8A03A" stroke-width="2"/><line x1="243" y1="506" x2="243" y2="499" stroke="#D8A03A" stroke-width="2"/><line x1="243" y1="562" x2="243" y2="569" stroke="#D8A03A" stroke-width="2"/><line x1="256" y1="506" x2="256" y2="499" stroke="#D8A03A" stroke-width="2"/><line x1="256" y1="562" x2="256" y2="569" stroke="#D8A03A" stroke-width="2"/><line x1="269" y1="506" x2="269" y2="499" stroke="#D8A03A" stroke-width="2"/><line x1="269" y1="562" x2="269" y2="569" stroke="#D8A03A" stroke-width="2"/><line x1="282" y1="506" x2="282" y2="499" stroke="#D8A03A" stroke-width="2"/><line x1="282" y1="562" x2="282" y2="569" stroke="#D8A03A" stroke-width="2"/><line x1="295" y1="506" x2="295" y2="499" stroke="#D8A03A" stroke-width="2"/><line x1="295" y1="562" x2="295" y2="569" stroke="#D8A03A" stroke-width="2"/><line x1="308" y1="506" x2="308" y2="499" stroke="#D8A03A" stroke-width="2"/><line x1="308" y1="562" x2="308" y2="569" stroke="#D8A03A" stroke-width="2"/><line x1="321" y1="506" x2="321" y2="499" stroke="#D8A03A" stroke-width="2"/><line x1="321" y1="562" x2="321" y2="569" stroke="#D8A03A" stroke-width="2"/><line x1="334" y1="506" x2="334" y2="499" stroke="#D8A03A" stroke-width="2"/><line x1="334" y1="562" x2="334" y2="569" stroke="#D8A03A" stroke-width="2"/><line x1="347" y1="506" x2="347" y2="499" stroke="#D8A03A" stroke-width="2"/><line x1="347" y1="562" x2="347" y2="569" stroke="#D8A03A" stroke-width="2"/><line x1="360" y1="506" x2="360" y2="499" stroke="#D8A03A" stroke-width="2"/><line x1="360" y1="562" x2="360" y2="569" stroke="#D8A03A" stroke-width="2"/><line x1="373" y1="506" x2="373" y2="499" stroke="#D8A03A" stroke-width="2"/><line x1="373" y1="562" x2="373" y2="569" stroke="#D8A03A" stroke-width="2"/><line x1="386" y1="506" x2="386" y2="499" stroke="#D8A03A" stroke-width="2"/><line x1="386" y1="562" x2="386" y2="569" stroke="#D8A03A" stroke-width="2"/><line x1="399" y1="506" x2="399" y2="499" stroke="#D8A03A" stroke-width="2"/><line x1="399" y1="562" x2="399" y2="569" stroke="#D8A03A" stroke-width="2"/><line x1="412" y1="506" x2="412" y2="499" stroke="#D8A03A" stroke-width="2"/><line x1="412" y1="562" x2="412" y2="569" stroke="#D8A03A" stroke-width="2"/><line x1="425" y1="506" x2="425" y2="499" stroke="#D8A03A" stroke-width="2"/><line x1="425" y1="562" x2="425" y2="569" stroke="#D8A03A" stroke-width="2"/><line x1="438" y1="506" x2="438" y2="499" stroke="#D8A03A" stroke-width="2"/><line x1="438" y1="562" x2="438" y2="569" stroke="#D8A03A" stroke-width="2"/><line x1="451" y1="506" x2="451" y2="499" stroke="#D8A03A" stroke-width="2"/><line x1="451" y1="562" x2="451" y2="569" stroke="#D8A03A" stroke-width="2"/><line x1="464" y1="506" x2="464" y2="499" stroke="#D8A03A" stroke-width="2"/><line x1="464" y1="562" x2="464" y2="569" stroke="#D8A03A" stroke-width="2"/><line x1="477" y1="506" x2="477" y2="499" stroke="#D8A03A" stroke-width="2"/><line x1="477" y1="562" x2="477" y2="569" stroke="#D8A03A" stroke-width="2"/><line x1="490" y1="506" x2="490" y2="499" stroke="#D8A03A" stroke-width="2"/><line x1="490" y1="562" x2="490" y2="569" stroke="#D8A03A" stroke-width="2"/><line x1="503" y1="506" x2="503" y2="499" stroke="#D8A03A" stroke-width="2"/><line x1="503" y1="562" x2="503" y2="569" stroke="#D8A03A" stroke-width="2"/><line x1="516" y1="506" x2="516" y2="499" stroke="#D8A03A" stroke-width="2"/><line x1="516" y1="562" x2="516" y2="569" stroke="#D8A03A" stroke-width="2"/><line x1="529" y1="506" x2="529" y2="499" stroke="#D8A03A" stroke-width="2"/><line x1="529" y1="562" x2="529" y2="569" stroke="#D8A03A" stroke-width="2"/><line x1="542" y1="506" x2="542" y2="499" stroke="#D8A03A" stroke-width="2"/><line x1="542" y1="562" x2="542" y2="569" stroke="#D8A03A" stroke-width="2"/><line x1="555" y1="506" x2="555" y2="499" stroke="#D8A03A" stroke-width="2"/><line x1="555" y1="562" x2="555" y2="569" stroke="#D8A03A" stroke-width="2"/><line x1="568" y1="506" x2="568" y2="499" stroke="#D8A03A" stroke-width="2"/><line x1="568" y1="562" x2="568" y2="569" stroke="#D8A03A" stroke-width="2"/><line x1="581" y1="506" x2="581" y2="499" stroke="#D8A03A" stroke-width="2"/><line x1="581" y1="562" x2="581" y2="569" stroke="#D8A03A" stroke-width="2"/><line x1="594" y1="506" x2="594" y2="499" stroke="#D8A03A" stroke-width="2"/><line x1="594" y1="562" x2="594" y2="569" stroke="#D8A03A" stroke-width="2"/><line x1="607" y1="506" x2="607" y2="499" stroke="#D8A03A" stroke-width="2"/><line x1="607" y1="562" x2="607" y2="569" stroke="#D8A03A" stroke-width="2"/><line x1="620" y1="506" x2="620" y2="499" stroke="#D8A03A" stroke-width="2"/><line x1="620" y1="562" x2="620" y2="569" stroke="#D8A03A" stroke-width="2"/><line x1="633" y1="506" x2="633" y2="499" stroke="#D8A03A" stroke-width="2"/><line x1="633" y1="562" x2="633" y2="569" stroke="#D8A03A" stroke-width="2"/>
  <rect x="165" y="506" width="470" height="56" rx="5" fill="#2E4A3B" />
  <rect x="177" y="515" width="446" height="38" rx="3" fill="none" stroke="#D8A03A" stroke-width="3"/>
  <rect x="187" y="522" width="426" height="24" rx="3" fill="none" stroke="#EAD9C1" stroke-width="1.6" opacity=".8"/>
  <g transform="translate(338,534)"><ellipse cx="0" cy="-9.3" rx="4.5" ry="8.25" fill="#D8A03A" transform="rotate(0)"/><ellipse cx="0" cy="-9.3" rx="4.5" ry="8.25" fill="#D8A03A" transform="rotate(60)"/><ellipse cx="0" cy="-9.3" rx="4.5" ry="8.25" fill="#D8A03A" transform="rotate(120)"/><ellipse cx="0" cy="-9.3" rx="4.5" ry="8.25" fill="#D8A03A" transform="rotate(180)"/><ellipse cx="0" cy="-9.3" rx="4.5" ry="8.25" fill="#D8A03A" transform="rotate(240)"/><ellipse cx="0" cy="-9.3" rx="4.5" ry="8.25" fill="#D8A03A" transform="rotate(300)"/><circle r="3.9" fill="#EAD9C1"/></g><g transform="translate(400,534)"><ellipse cx="0" cy="-9.3" rx="4.5" ry="8.25" fill="#D8A03A" transform="rotate(0)"/><ellipse cx="0" cy="-9.3" rx="4.5" ry="8.25" fill="#D8A03A" transform="rotate(60)"/><ellipse cx="0" cy="-9.3" rx="4.5" ry="8.25" fill="#D8A03A" transform="rotate(120)"/><ellipse cx="0" cy="-9.3" rx="4.5" ry="8.25" fill="#D8A03A" transform="rotate(180)"/><ellipse cx="0" cy="-9.3" rx="4.5" ry="8.25" fill="#D8A03A" transform="rotate(240)"/><ellipse cx="0" cy="-9.3" rx="4.5" ry="8.25" fill="#D8A03A" transform="rotate(300)"/><circle r="3.9" fill="#EAD9C1"/></g><g transform="translate(462,534)"><ellipse cx="0" cy="-9.3" rx="4.5" ry="8.25" fill="#D8A03A" transform="rotate(0)"/><ellipse cx="0" cy="-9.3" rx="4.5" ry="8.25" fill="#D8A03A" transform="rotate(60)"/><ellipse cx="0" cy="-9.3" rx="4.5" ry="8.25" fill="#D8A03A" transform="rotate(120)"/><ellipse cx="0" cy="-9.3" rx="4.5" ry="8.25" fill="#D8A03A" transform="rotate(180)"/><ellipse cx="0" cy="-9.3" rx="4.5" ry="8.25" fill="#D8A03A" transform="rotate(240)"/><ellipse cx="0" cy="-9.3" rx="4.5" ry="8.25" fill="#D8A03A" transform="rotate(300)"/><circle r="3.9" fill="#EAD9C1"/></g>
      <ellipse cx="400" cy="510" rx="198" ry="13" fill="#000" opacity=".10"/>
      <rect x="234" y="302" width="332" height="124" rx="14" fill="#C44536" />
      <rect x="246" y="312" width="308" height="104" rx="10" fill="none" stroke="#D8A03A" stroke-width="2" opacity=".45"/>
      <circle cx="316" cy="364" r="3.5" fill="#D8A03A" opacity=".5"/><circle cx="372" cy="364" r="3.5" fill="#D8A03A" opacity=".5"/><circle cx="428" cy="364" r="3.5" fill="#D8A03A" opacity=".5"/><circle cx="484" cy="364" r="3.5" fill="#D8A03A" opacity=".5"/>
      <rect x="272" y="380" width="124" height="44" rx="12" fill="#FFF7E8" /><rect x="404" y="380" width="124" height="44" rx="12" fill="#FFF7E8" />
      <rect x="220" y="418" width="360" height="46" rx="9" fill="#FFF7E8" />
      <rect x="212" y="448" width="376" height="32" rx="7" fill="#2E4A3B" />
      <rect x="226" y="476" width="348" height="22" rx="5" fill="#8B5E3C" />
      <rect x="230" y="496" width="14" height="10" rx="3" fill="#6F4A2E" />
      <rect x="556" y="496" width="14" height="10" rx="3" fill="#6F4A2E" />
      
  <ellipse cx="138" cy="494" rx="34.1" ry="7" fill="#000" opacity=".09"/>
  <rect x="107" y="428" width="62" height="9" rx="4" fill="#8B5E3C" />
  <path d="M119.4,437 L126.84,490 M156.6,437 L149.16,490"
    stroke="#8B5E3C" stroke-width="5" stroke-linecap="round"/> <g transform="translate(138,428) scale(0.85)">
    <path d="M-14,0 Q-14,10 0,10 Q14,10 14,0 Z" fill="#C44536"/>
    <ellipse cx="0" cy="0" rx="14" ry="4" fill="#9E3427"/>
    <path d="M0,-2 Q-5,-10 0,-18 Q5,-10 0,-2 Z" fill="#F0A03A"/>
    <circle cy="-10" r="13" fill="#F0A03A" opacity=".18"/>
  </g>
      
  <ellipse cx="662" cy="494" rx="34.1" ry="7" fill="#000" opacity=".09"/>
  <rect x="631" y="428" width="62" height="9" rx="4" fill="#8B5E3C" />
  <path d="M643.4,437 L650.84,490 M680.6,437 L673.16,490"
    stroke="#8B5E3C" stroke-width="5" stroke-linecap="round"/>
      <g transform="translate(736,498) scale(0.78)">
    <ellipse cx="0" cy="4" rx="34" ry="8" fill="#000" opacity=".10"/>
    <g transform="translate(0,-32)"><path d="M0,0 Q-17.79,-29.55 -52,-34 Q-34.21,-4.45 0,0 Z" fill="#2E4A3B"/><path d="M0,0 Q-23.4,-21.08 -52,-34"
      stroke="#1E3227" stroke-width="1.3" fill="none" opacity=".65"/><path d="M0,0 Q-4.94,-42.63 -38,-70 Q-33.06,-27.37 0,0 Z" fill="#2E4A3B"/><path d="M0,0 Q-17.1,-43.4 -38,-70"
      stroke="#1E3227" stroke-width="1.3" fill="none" opacity=".65"/><path d="M0,0 Q8.76,-49.85 -16,-94 Q-24.76,-44.15 0,0 Z" fill="#2E4A3B"/><path d="M0,0 Q-7.2,-58.28 -16,-94"
      stroke="#1E3227" stroke-width="1.3" fill="none" opacity=".65"/><path d="M0,0 Q20.94,-47.62 8,-98 Q-12.94,-50.38 0,0 Z" fill="#2E4A3B"/><path d="M0,0 Q3.6,-60.76 8,-98"
      stroke="#1E3227" stroke-width="1.3" fill="none" opacity=".65"/><path d="M0,0 Q29.93,-33.26 30,-78 Q0.07,-44.74 0,0 Z" fill="#2E4A3B"/><path d="M0,0 Q13.5,-48.36 30,-78"
      stroke="#1E3227" stroke-width="1.3" fill="none" opacity=".65"/><path d="M0,0 Q34.25,-11.49 50,-44 Q15.75,-32.51 0,0 Z" fill="#2E4A3B"/><path d="M0,0 Q22.5,-27.28 50,-44"
      stroke="#1E3227" stroke-width="1.3" fill="none" opacity=".65"/><path d="M0,0 Q0.11,-31.53 -22,-54 Q-22.11,-22.47 0,0 Z" fill="#2E4A3B"/><path d="M0,0 Q-9.9,-33.48 -22,-54"
      stroke="#1E3227" stroke-width="1.3" fill="none" opacity=".65"/><path d="M0,0 Q21.2,-21.69 20,-52 Q-1.2,-30.31 0,0 Z" fill="#2E4A3B"/><path d="M0,0 Q9,-32.24 20,-52"
      stroke="#1E3227" stroke-width="1.3" fill="none" opacity=".65"/></g>
    <path d="M-26,-30 L26,-30 L20,2 L-20,2 Z" fill="#C44536"/>
    <rect x="-29" y="-36" width="58" height="10" rx="3" fill="#9E3427"/>
    <path d="M-20,-16 L20,-16" stroke="#9E3427" stroke-width="2" opacity=".5"/>
  </g>
</svg>