<svg xmlns="http://www.w3.org/2000/svg" viewBox="0 0 400 400" role="img" aria-label="Mandala pattern">
<title>Mandala pattern</title>
<ellipse cx="378" cy="200"
        rx="6.72" ry="14" fill="#C44536" opacity="0.5"
        transform="rotate(90 378 200)"/><ellipse cx="374.58" cy="234.73"
        rx="6.72" ry="14" fill="#C44536" opacity="0.5"
        transform="rotate(101.25 374.58 234.73)"/><ellipse cx="364.45" cy="268.12"
        rx="6.72" ry="14" fill="#C44536" opacity="0.5"
        transform="rotate(112.5 364.45 268.12)"/><ellipse cx="348" cy="298.89"
        rx="6.72" ry="14" fill="#C44536" opacity="0.5"
        transform="rotate(123.75 348 298.89)"/><ellipse cx="325.87" cy="325.87"
        rx="6.72" ry="14" fill="#C44536" opacity="0.5"
        transform="rotate(135 325.87 325.87)"/><ellipse cx="298.89" cy="348"
        rx="6.72" ry="14" fill="#C44536" opacity="0.5"
        transform="rotate(146.25 298.89 348)"/><ellipse cx="268.12" cy="364.45"
        rx="6.72" ry="14" fill="#C44536" opacity="0.5"
        transform="rotate(157.5 268.12 364.45)"/><ellipse cx="234.73" cy="374.58"
        rx="6.72" ry="14" fill="#C44536" opacity="0.5"
        transform="rotate(168.75 234.73 374.58)"/><ellipse cx="200" cy="378"
        rx="6.72" ry="14" fill="#C44536" opacity="0.5"
        transform="rotate(180 200 378)"/><ellipse cx="165.27" cy="374.58"
        rx="6.72" ry="14" fill="#C44536" opacity="0.5"
        transform="rotate(191.25 165.27 374.58)"/><ellipse cx="131.88" cy="364.45"
        rx="6.72" ry="14" fill="#C44536" opacity="0.5"
        transform="rotate(202.5 131.88 364.45)"/><ellipse cx="101.11" cy="348"
        rx="6.72" ry="14" fill="#C44536" opacity="0.5"
        transform="rotate(213.75 101.11 348)"/><ellipse cx="74.13" cy="325.87"
        rx="6.72" ry="14" fill="#C44536" opacity="0.5"
        transform="rotate(225 74.13 325.87)"/><ellipse cx="52" cy="298.89"
        rx="6.72" ry="14" fill="#C44536" opacity="0.5"
        transform="rotate(236.25 52 298.89)"/><ellipse cx="35.55" cy="268.12"
        rx="6.72" ry="14" fill="#C44536" opacity="0.5"
        transform="rotate(247.5 35.55 268.12)"/><ellipse cx="25.42" cy="234.73"
        rx="6.72" ry="14" fill="#C44536" opacity="0.5"
        transform="rotate(258.75 25.42 234.73)"/><ellipse cx="22" cy="200"
        rx="6.72" ry="14" fill="#C44536" opacity="0.5"
        transform="rotate(270 22 200)"/><ellipse cx="25.42" cy="165.27"
        rx="6.72" ry="14" fill="#C44536" opacity="0.5"
        transform="rotate(281.25 25.42 165.27)"/><ellipse cx="35.55" cy="131.88"
        rx="6.72" ry="14" fill="#C44536" opacity="0.5"
        transform="rotate(292.5 35.55 131.88)"/><ellipse cx="52" cy="101.11"
        rx="6.72" ry="14" fill="#C44536" opacity="0.5"
        transform="rotate(303.75 52 101.11)"/><ellipse cx="74.13" cy="74.13"
        rx="6.72" ry="14" fill="#C44536" opacity="0.5"
        transform="rotate(315 74.13 74.13)"/><ellipse cx="101.11" cy="52"
        rx="6.72" ry="14" fill="#C44536" opacity="0.5"
        transform="rotate(326.25 101.11 52)"/><ellipse cx="131.88" cy="35.55"
        rx="6.72" ry="14" fill="#C44536" opacity="0.5"
        transform="rotate(337.5 131.88 35.55)"/><ellipse cx="165.27" cy="25.42"
        rx="6.72" ry="14" fill="#C44536" opacity="0.5"
        transform="rotate(348.75 165.27 25.42)"/><ellipse cx="200" cy="22"
        rx="6.72" ry="14" fill="#C44536" opacity="0.5"
        transform="rotate(360 200 22)"/><ellipse cx="234.73" cy="25.42"
        rx="6.72" ry="14" fill="#C44536" opacity="0.5"
        transform="rotate(371.25 234.73 25.42)"/><ellipse cx="268.12" cy="35.55"
        rx="6.72" ry="14" fill="#C44536" opacity="0.5"
        transform="rotate(382.5 268.12 35.55)"/><ellipse cx="298.89" cy="52"
        rx="6.72" ry="14" fill="#C44536" opacity="0.5"
        transform="rotate(393.75 298.89 52)"/><ellipse cx="325.87" cy="74.13"
        rx="6.72" ry="14" fill="#C44536" opacity="0.5"
        transform="rotate(405 325.87 74.13)"/><ellipse cx="348" cy="101.11"
        rx="6.72" ry="14" fill="#C44536" opacity="0.5"
        transform="rotate(416.25 348 101.11)"/><ellipse cx="364.45" cy="131.88"
        rx="6.72" ry="14" fill="#C44536" opacity="0.5"
        transform="rotate(427.5 364.45 131.88)"/><ellipse cx="374.58" cy="165.27"
        rx="6.72" ry="14" fill="#C44536" opacity="0.5"
        transform="rotate(438.75 374.58 165.27)"/><circle cx="200" cy="200" r="164" fill="none" stroke="#C44536" stroke-width="1.5" opacity=".45"/><ellipse cx="346" cy="200"
        rx="8.64" ry="18" fill="#D8A03A" opacity="0.7"
        transform="rotate(90 346 200)"/><ellipse cx="341.03" cy="237.79"
        rx="8.64" ry="18" fill="#D8A03A" opacity="0.7"
        transform="rotate(105 341.03 237.79)"/><ellipse cx="326.44" cy="273"
        rx="8.64" ry="18" fill="#D8A03A" opacity="0.7"
        transform="rotate(120 326.44 273)"/><ellipse cx="303.24" cy="303.24"
        rx="8.64" ry="18" fill="#D8A03A" opacity="0.7"
        transform="rotate(135 303.24 303.24)"/><ellipse cx="273" cy="326.44"
        rx="8.64" ry="18" fill="#D8A03A" opacity="0.7"
        transform="rotate(150 273 326.44)"/><ellipse cx="237.79" cy="341.03"
        rx="8.64" ry="18" fill="#D8A03A" opacity="0.7"
        transform="rotate(165 237.79 341.03)"/><ellipse cx="200" cy="346"
        rx="8.64" ry="18" fill="#D8A03A" opacity="0.7"
        transform="rotate(180 200 346)"/><ellipse cx="162.21" cy="341.03"
        rx="8.64" ry="18" fill="#D8A03A" opacity="0.7"
        transform="rotate(195 162.21 341.03)"/><ellipse cx="127" cy="326.44"
        rx="8.64" ry="18" fill="#D8A03A" opacity="0.7"
        transform="rotate(210 127 326.44)"/><ellipse cx="96.76" cy="303.24"
        rx="8.64" ry="18" fill="#D8A03A" opacity="0.7"
        transform="rotate(225 96.76 303.24)"/><ellipse cx="73.56" cy="273"
        rx="8.64" ry="18" fill="#D8A03A" opacity="0.7"
        transform="rotate(240 73.56 273)"/><ellipse cx="58.97" cy="237.79"
        rx="8.64" ry="18" fill="#D8A03A" opacity="0.7"
        transform="rotate(255 58.97 237.79)"/><ellipse cx="54" cy="200"
        rx="8.64" ry="18" fill="#D8A03A" opacity="0.7"
        transform="rotate(270 54 200)"/><ellipse cx="58.97" cy="162.21"
        rx="8.64" ry="18" fill="#D8A03A" opacity="0.7"
        transform="rotate(285 58.97 162.21)"/><ellipse cx="73.56" cy="127"
        rx="8.64" ry="18" fill="#D8A03A" opacity="0.7"
        transform="rotate(300 73.56 127)"/><ellipse cx="96.76" cy="96.76"
        rx="8.64" ry="18" fill="#D8A03A" opacity="0.7"
        transform="rotate(315 96.76 96.76)"/><ellipse cx="127" cy="73.56"
        rx="8.64" ry="18" fill="#D8A03A" opacity="0.7"
        transform="rotate(330 127 73.56)"/><ellipse cx="162.21" cy="58.97"
        rx="8.64" ry="18" fill="#D8A03A" opacity="0.7"
        transform="rotate(345 162.21 58.97)"/><ellipse cx="200" cy="54"
        rx="8.64" ry="18" fill="#D8A03A" opacity="0.7"
        transform="rotate(360 200 54)"/><ellipse cx="237.79" cy="58.97"
        rx="8.64" ry="18" fill="#D8A03A" opacity="0.7"
        transform="rotate(375 237.79 58.97)"/><ellipse cx="273" cy="73.56"
        rx="8.64" ry="18" fill="#D8A03A" opacity="0.7"
        transform="rotate(390 273 73.56)"/><ellipse cx="303.24" cy="96.76"
        rx="8.64" ry="18" fill="#D8A03A" opacity="0.7"
        transform="rotate(405 303.24 96.76)"/><ellipse cx="326.44" cy="127"
        rx="8.64" ry="18" fill="#D8A03A" opacity="0.7"
        transform="rotate(420 326.44 127)"/><ellipse cx="341.03" cy="162.21"
        rx="8.64" ry="18" fill="#D8A03A" opacity="0.7"
        transform="rotate(435 341.03 162.21)"/><circle cx="200" cy="200" r="128" fill="none" stroke="#D8A03A" stroke-width="1.5" opacity=".45"/><ellipse cx="312" cy="200"
        rx="10.559999999999999" ry="22" fill="#C44536" opacity="0.6"
        transform="rotate(90 312 200)"/><ellipse cx="303.47" cy="242.86"
        rx="10.559999999999999" ry="22" fill="#C44536" opacity="0.6"
        transform="rotate(112.5 303.47 242.86)"/><ellipse cx="279.2" cy="279.2"
        rx="10.559999999999999" ry="22" fill="#C44536" opacity="0.6"
        transform="rotate(135 279.2 279.2)"/><ellipse cx="242.86" cy="303.47"
        rx="10.559999999999999" ry="22" fill="#C44536" opacity="0.6"
        transform="rotate(157.5 242.86 303.47)"/><ellipse cx="200" cy="312"
        rx="10.559999999999999" ry="22" fill="#C44536" opacity="0.6"
        transform="rotate(180 200 312)"/><ellipse cx="157.14" cy="303.47"
        rx="10.559999999999999" ry="22" fill="#C44536" opacity="0.6"
        transform="rotate(202.5 157.14 303.47)"/><ellipse cx="120.8" cy="279.2"
        rx="10.559999999999999" ry="22" fill="#C44536" opacity="0.6"
        transform="rotate(225 120.8 279.2)"/><ellipse cx="96.53" cy="242.86"
        rx="10.559999999999999" ry="22" fill="#C44536" opacity="0.6"
        transform="rotate(247.5 96.53 242.86)"/><ellipse cx="88" cy="200"
        rx="10.559999999999999" ry="22" fill="#C44536" opacity="0.6"
        transform="rotate(270 88 200)"/><ellipse cx="96.53" cy="157.14"
        rx="10.559999999999999" ry="22" fill="#C44536" opacity="0.6"
        transform="rotate(292.5 96.53 157.14)"/><ellipse cx="120.8" cy="120.8"
        rx="10.559999999999999" ry="22" fill="#C44536" opacity="0.6"
        transform="rotate(315 120.8 120.8)"/><ellipse cx="157.14" cy="96.53"
        rx="10.559999999999999" ry="22" fill="#C44536" opacity="0.6"
        transform="rotate(337.5 157.14 96.53)"/><ellipse cx="200" cy="88"
        rx="10.559999999999999" ry="22" fill="#C44536" opacity="0.6"
        transform="rotate(360 200 88)"/><ellipse cx="242.86" cy="96.53"
        rx="10.559999999999999" ry="22" fill="#C44536" opacity="0.6"
        transform="rotate(382.5 242.86 96.53)"/><ellipse cx="279.2" cy="120.8"
        rx="10.559999999999999" ry="22" fill="#C44536" opacity="0.6"
        transform="rotate(405 279.2 120.8)"/><ellipse cx="303.47" cy="157.14"
        rx="10.559999999999999" ry="22" fill="#C44536" opacity="0.6"
        transform="rotate(427.5 303.47 157.14)"/><circle cx="200" cy="200" r="90" fill="none" stroke="#C44536" stroke-width="1.5" opacity=".45"/><ellipse cx="278" cy="200"
        rx="9.6" ry="20" fill="#D8A03A" opacity="0.8"
        transform="rotate(90 278 200)"/><ellipse cx="267.55" cy="239"
        rx="9.6" ry="20" fill="#D8A03A" opacity="0.8"
        transform="rotate(120 267.55 239)"/><ellipse cx="239" cy="267.55"
        rx="9.6" ry="20" fill="#D8A03A" opacity="0.8"
        transform="rotate(150 239 267.55)"/><ellipse cx="200" cy="278"
        rx="9.6" ry="20" fill="#D8A03A" opacity="0.8"
        transform="rotate(180 200 278)"/><ellipse cx="161" cy="267.55"
        rx="9.6" ry="20" fill="#D8A03A" opacity="0.8"
        transform="rotate(210 161 267.55)"/><ellipse cx="132.45" cy="239"
        rx="9.6" ry="20" fill="#D8A03A" opacity="0.8"
        transform="rotate(240 132.45 239)"/><ellipse cx="122" cy="200"
        rx="9.6" ry="20" fill="#D8A03A" opacity="0.8"
        transform="rotate(270 122 200)"/><ellipse cx="132.45" cy="161"
        rx="9.6" ry="20" fill="#D8A03A" opacity="0.8"
        transform="rotate(300 132.45 161)"/><ellipse cx="161" cy="132.45"
        rx="9.6" ry="20" fill="#D8A03A" opacity="0.8"
        transform="rotate(330 161 132.45)"/><ellipse cx="200" cy="122"
        rx="9.6" ry="20" fill="#D8A03A" opacity="0.8"
        transform="rotate(360 200 122)"/><ellipse cx="239" cy="132.45"
        rx="9.6" ry="20" fill="#D8A03A" opacity="0.8"
        transform="rotate(390 239 132.45)"/><ellipse cx="267.55" cy="161"
        rx="9.6" ry="20" fill="#D8A03A" opacity="0.8"
        transform="rotate(420 267.55 161)"/><circle cx="200" cy="200" r="58" fill="none" stroke="#D8A03A" stroke-width="1.5" opacity=".45"/><ellipse cx="246" cy="200"
        rx="8.64" ry="18" fill="#C44536" opacity="0.7"
        transform="rotate(90 246 200)"/><ellipse cx="232.53" cy="232.53"
        rx="8.64" ry="18" fill="#C44536" opacity="0.7"
        transform="rotate(135 232.53 232.53)"/><ellipse cx="200" cy="246"
        rx="8.64" ry="18" fill="#C44536" opacity="0.7"
        transform="rotate(180 200 246)"/><ellipse cx="167.47" cy="232.53"
        rx="8.64" ry="18" fill="#C44536" opacity="0.7"
        transform="rotate(225 167.47 232.53)"/><ellipse cx="154" cy="200"
        rx="8.64" ry="18" fill="#C44536" opacity="0.7"
        transform="rotate(270 154 200)"/><ellipse cx="167.47" cy="167.47"
        rx="8.64" ry="18" fill="#C44536" opacity="0.7"
        transform="rotate(315 167.47 167.47)"/><ellipse cx="200" cy="154"
        rx="8.64" ry="18" fill="#C44536" opacity="0.7"
        transform="rotate(360 200 154)"/><ellipse cx="232.53" cy="167.47"
        rx="8.64" ry="18" fill="#C44536" opacity="0.7"
        transform="rotate(405 232.53 167.47)"/><circle cx="200" cy="200" r="28" fill="none" stroke="#C44536" stroke-width="1.5" opacity=".45"/>
<g transform="translate(200,200)"><ellipse cx="0" cy="-18.6" rx="9" ry="16.5" fill="#C44536" transform="rotate(0)"/><ellipse cx="0" cy="-18.6" rx="9" ry="16.5" fill="#C44536" transform="rotate(60)"/><ellipse cx="0" cy="-18.6" rx="9" ry="16.5" fill="#C44536" transform="rotate(120)"/><ellipse cx="0" cy="-18.6" rx="9" ry="16.5" fill="#C44536" transform="rotate(180)"/><ellipse cx="0" cy="-18.6" rx="9" ry="16.5" fill="#C44536" transform="rotate(240)"/><ellipse cx="0" cy="-18.6" rx="9" ry="16.5" fill="#C44536" transform="rotate(300)"/><circle r="7.8" fill="#D8A03A"/></g>
</svg>