<svg xmlns="http://www.w3.org/2000/svg" viewBox="0 0 800 560" role="img" aria-label="office interior illustration">
<title>office interior illustration</title>

  <rect width="800" height="400" fill="#E8F0EC"/>
  <rect y="326" width="800" height="74" fill="#D8E5DF" opacity=".55"/>
  <rect y="322" width="800" height="4" fill="#8B5E3C" opacity=".5"/>
      <path d="M88,286 L88,198.7 C88,140.5 106.56,103.64 140.2,95.88 C143.68,88.12 148.32,88.12 151.8,95.88 C185.44,103.64 204,140.5 204,198.7 L204,286 Z" fill="#1F6D6A" opacity=".2"/>
        <path d="M88,286 L88,198.7 C88,140.5 106.56,103.64 140.2,95.88 C143.68,88.12 148.32,88.12 151.8,95.88 C185.44,103.64 204,140.5 204,198.7 L204,286 Z" fill="none" stroke="#8B5E3C" stroke-width="3" opacity=".55"/>
        <g transform="translate(146,196)"><ellipse cx="0" cy="-10.54" rx="5.1" ry="9.35" fill="#E9C079" transform="rotate(0)"/><ellipse cx="0" cy="-10.54" rx="5.1" ry="9.35" fill="#E9C079" transform="rotate(60)"/><ellipse cx="0" cy="-10.54" rx="5.1" ry="9.35" fill="#E9C079" transform="rotate(120)"/><ellipse cx="0" cy="-10.54" rx="5.1" ry="9.35" fill="#E9C079" transform="rotate(180)"/><ellipse cx="0" cy="-10.54" rx="5.1" ry="9.35" fill="#E9C079" transform="rotate(240)"/><ellipse cx="0" cy="-10.54" rx="5.1" ry="9.35" fill="#E9C079" transform="rotate(300)"/><circle r="4.42" fill="#1F6D6A"/></g><path d="M246,286 L246,198.7 C246,140.5 264.56,103.64 298.2,95.88 C301.68,88.12 306.32,88.12 309.8,95.88 C343.44,103.64 362,140.5 362,198.7 L362,286 Z" fill="#1F6D6A" opacity=".2"/>
        <path d="M246,286 L246,198.7 C246,140.5 264.56,103.64 298.2,95.88 C301.68,88.12 306.32,88.12 309.8,95.88 C343.44,103.64 362,140.5 362,198.7 L362,286 Z" fill="none" stroke="#8B5E3C" stroke-width="3" opacity=".55"/>
        <g transform="translate(304,196)"><ellipse cx="0" cy="-10.54" rx="5.1" ry="9.35" fill="#E9C079" transform="rotate(0)"/><ellipse cx="0" cy="-10.54" rx="5.1" ry="9.35" fill="#E9C079" transform="rotate(60)"/><ellipse cx="0" cy="-10.54" rx="5.1" ry="9.35" fill="#E9C079" transform="rotate(120)"/><ellipse cx="0" cy="-10.54" rx="5.1" ry="9.35" fill="#E9C079" transform="rotate(180)"/><ellipse cx="0" cy="-10.54" rx="5.1" ry="9.35" fill="#E9C079" transform="rotate(240)"/><ellipse cx="0" cy="-10.54" rx="5.1" ry="9.35" fill="#E9C079" transform="rotate(300)"/><circle r="4.42" fill="#1F6D6A"/></g><path d="M404,286 L404,198.7 C404,140.5 422.56,103.64 456.2,95.88 C459.68,88.12 464.32,88.12 467.8,95.88 C501.44,103.64 520,140.5 520,198.7 L520,286 Z" fill="#1F6D6A" opacity=".2"/>
        <path d="M404,286 L404,198.7 C404,140.5 422.56,103.64 456.2,95.88 C459.68,88.12 464.32,88.12 467.8,95.88 C501.44,103.64 520,140.5 520,198.7 L520,286 Z" fill="none" stroke="#8B5E3C" stroke-width="3" opacity=".55"/>
        <g transform="translate(462,196)"><ellipse cx="0" cy="-10.54" rx="5.1" ry="9.35" fill="#E9C079" transform="rotate(0)"/><ellipse cx="0" cy="-10.54" rx="5.1" ry="9.35" fill="#E9C079" transform="rotate(60)"/><ellipse cx="0" cy="-10.54" rx="5.1" ry="9.35" fill="#E9C079" transform="rotate(120)"/><ellipse cx="0" cy="-10.54" rx="5.1" ry="9.35" fill="#E9C079" transform="rotate(180)"/><ellipse cx="0" cy="-10.54" rx="5.1" ry="9.35" fill="#E9C079" transform="rotate(240)"/><ellipse cx="0" cy="-10.54" rx="5.1" ry="9.35" fill="#E9C079" transform="rotate(300)"/><circle r="4.42" fill="#1F6D6A"/></g><path d="M562,286 L562,198.7 C562,140.5 580.56,103.64 614.2,95.88 C617.68,88.12 622.32,88.12 625.8,95.88 C659.44,103.64 678,140.5 678,198.7 L678,286 Z" fill="#1F6D6A" opacity=".2"/>
        <path d="M562,286 L562,198.7 C562,140.5 580.56,103.64 614.2,95.88 C617.68,88.12 622.32,88.12 625.8,95.88 C659.44,103.64 678,140.5 678,198.7 L678,286 Z" fill="none" stroke="#8B5E3C" stroke-width="3" opacity=".55"/>
        <g transform="translate(620,196)"><ellipse cx="0" cy="-10.54" rx="5.1" ry="9.35" fill="#E9C079" transform="rotate(0)"/><ellipse cx="0" cy="-10.54" rx="5.1" ry="9.35" fill="#E9C079" transform="rotate(60)"/><ellipse cx="0" cy="-10.54" rx="5.1" ry="9.35" fill="#E9C079" transform="rotate(120)"/><ellipse cx="0" cy="-10.54" rx="5.1" ry="9.35" fill="#E9C079" transform="rotate(180)"/><ellipse cx="0" cy="-10.54" rx="5.1" ry="9.35" fill="#E9C079" transform="rotate(240)"/><ellipse cx="0" cy="-10.54" rx="5.1" ry="9.35" fill="#E9C079" transform="rotate(300)"/><circle r="4.42" fill="#1F6D6A"/></g>
      <rect x="80" y="300" width="640" height="5" rx="3" fill="#8B5E3C" opacity=".6"/>
      <g>
    <line x1="250" y1="0" x2="250" y2="54" stroke="#B8862F" stroke-width="2.5"/>
    <path d="M218,70 Q250,22 282,70 Z" fill="#B8862F"/>
    <ellipse cx="250" cy="70" rx="32" ry="5" fill="#E9C079"/>
    <ellipse cx="250" cy="96" rx="48" ry="22" fill="#FFE9B0" opacity=".3"/>
  </g> <g>
    <line x1="550" y1="0" x2="550" y2="54" stroke="#B8862F" stroke-width="2.5"/>
    <path d="M518,70 Q550,22 582,70 Z" fill="#B8862F"/>
    <ellipse cx="550" cy="70" rx="32" ry="5" fill="#E9C079"/>
    <ellipse cx="550" cy="96" rx="48" ry="22" fill="#FFE9B0" opacity=".3"/>
  </g>
      <rect y="400" width="800" height="160" fill="#96693F"/><line x1="0" y1="412" x2="800" y2="412" stroke="#7A5334" stroke-width="1.2" opacity=".4"/><line x1="316.27" y1="412" x2="316.27" y2="436" stroke="#7A5334" stroke-width="1.2" opacity=".28"/><line x1="491.03" y1="412" x2="491.03" y2="436" stroke="#7A5334" stroke-width="1.2" opacity=".28"/><line x1="213.92" y1="412" x2="213.92" y2="436" stroke="#7A5334" stroke-width="1.2" opacity=".28"/><line x1="126.4" y1="412" x2="126.4" y2="436" stroke="#7A5334" stroke-width="1.2" opacity=".28"/><line x1="0" y1="436" x2="800" y2="436" stroke="#7A5334" stroke-width="1.2" opacity=".4"/><line x1="108.38" y1="436" x2="108.38" y2="460" stroke="#7A5334" stroke-width="1.2" opacity=".28"/><line x1="509.67" y1="436" x2="509.67" y2="460" stroke="#7A5334" stroke-width="1.2" opacity=".28"/><line x1="215.6" y1="436" x2="215.6" y2="460" stroke="#7A5334" stroke-width="1.2" opacity=".28"/><line x1="262.06" y1="436" x2="262.06" y2="460" stroke="#7A5334" stroke-width="1.2" opacity=".28"/><line x1="0" y1="460" x2="800" y2="460" stroke="#7A5334" stroke-width="1.2" opacity=".4"/><line x1="773.57" y1="460" x2="773.57" y2="484" stroke="#7A5334" stroke-width="1.2" opacity=".28"/><line x1="20.14" y1="460" x2="20.14" y2="484" stroke="#7A5334" stroke-width="1.2" opacity=".28"/><line x1="153.45" y1="460" x2="153.45" y2="484" stroke="#7A5334" stroke-width="1.2" opacity=".28"/><line x1="580.07" y1="460" x2="580.07" y2="484" stroke="#7A5334" stroke-width="1.2" opacity=".28"/><line x1="0" y1="484" x2="800" y2="484" stroke="#7A5334" stroke-width="1.2" opacity=".4"/><line x1="245.77" y1="484" x2="245.77" y2="508" stroke="#7A5334" stroke-width="1.2" opacity=".28"/><line x1="466.62" y1="484" x2="466.62" y2="508" stroke="#7A5334" stroke-width="1.2" opacity=".28"/><line x1="415.89" y1="484" x2="415.89" y2="508" stroke="#7A5334" stroke-width="1.2" opacity=".28"/><line x1="140.66" y1="484" x2="140.66" y2="508" stroke="#7A5334" stroke-width="1.2" opacity=".28"/><line x1="0" y1="508" x2="800" y2="508" stroke="#7A5334" stroke-width="1.2" opacity=".4"/><line x1="397.07" y1="508" x2="397.07" y2="532" stroke="#7A5334" stroke-width="1.2" opacity=".28"/><line x1="455.86" y1="508" x2="455.86" y2="532" stroke="#7A5334" stroke-width="1.2" opacity=".28"/><line x1="552.64" y1="508" x2="552.64" y2="532" stroke="#7A5334" stroke-width="1.2" opacity=".28"/><line x1="347.21" y1="508" x2="347.21" y2="532" stroke="#7A5334" stroke-width="1.2" opacity=".28"/><line x1="0" y1="532" x2="800" y2="532" stroke="#7A5334" stroke-width="1.2" opacity=".4"/><line x1="431" y1="532" x2="431" y2="556" stroke="#7A5334" stroke-width="1.2" opacity=".28"/><line x1="261.15" y1="532" x2="261.15" y2="556" stroke="#7A5334" stroke-width="1.2" opacity=".28"/><line x1="49.88" y1="532" x2="49.88" y2="556" stroke="#7A5334" stroke-width="1.2" opacity=".28"/><line x1="237.54" y1="532" x2="237.54" y2="556" stroke="#7A5334" stroke-width="1.2" opacity=".28"/><line x1="0" y1="556" x2="800" y2="556" stroke="#7A5334" stroke-width="1.2" opacity=".4"/><line x1="343.23" y1="556" x2="343.23" y2="580" stroke="#7A5334" stroke-width="1.2" opacity=".28"/><line x1="558.65" y1="556" x2="558.65" y2="580" stroke="#7A5334" stroke-width="1.2" opacity=".28"/><line x1="368.74" y1="556" x2="368.74" y2="580" stroke="#7A5334" stroke-width="1.2" opacity=".28"/><line x1="402.45" y1="556" x2="402.45" y2="580" stroke="#7A5334" stroke-width="1.2" opacity=".28"/>
    <rect y="400" width="800" height="10" fill="#000" opacity=".07"/>
      
  <ellipse cx="400" cy="517" rx="316" ry="41" fill="#000" opacity=".05"/>
  <line x1="100" y1="486" x2="100" y2="479" stroke="#E9C079" stroke-width="2"/><line x1="100" y1="548" x2="100" y2="555" stroke="#E9C079" stroke-width="2"/><line x1="113" y1="486" x2="113" y2="479" stroke="#E9C079" stroke-width="2"/><line x1="113" y1="548" x2="113" y2="555" stroke="#E9C079" stroke-width="2"/><line x1="126" y1="486" x2="126" y2="479" stroke="#E9C079" stroke-width="2"/><line x1="126" y1="548" x2="126" y2="555" stroke="#E9C079" stroke-width="2"/><line x1="139" y1="486" x2="139" y2="479" stroke="#E9C079" stroke-width="2"/><line x1="139" y1="548" x2="139" y2="555" stroke="#E9C079" stroke-width="2"/><line x1="152" y1="486" x2="152" y2="479" stroke="#E9C079" stroke-width="2"/><line x1="152" y1="548" x2="152" y2="555" stroke="#E9C079" stroke-width="2"/><line x1="165" y1="486" x2="165" y2="479" stroke="#E9C079" stroke-width="2"/><line x1="165" y1="548" x2="165" y2="555" stroke="#E9C079" stroke-width="2"/><line x1="178" y1="486" x2="178" y2="479" stroke="#E9C079" stroke-width="2"/><line x1="178" y1="548" x2="178" y2="555" stroke="#E9C079" stroke-width="2"/><line x1="191" y1="486" x2="191" y2="479" stroke="#E9C079" stroke-width="2"/><line x1="191" y1="548" x2="191" y2="555" stroke="#E9C079" stroke-width="2"/><line x1="204" y1="486" x2="204" y2="479" stroke="#E9C079" stroke-width="2"/><line x1="204" y1="548" x2="204" y2="555" stroke="#E9C079" stroke-width="2"/><line x1="217" y1="486" x2="217" y2="479" stroke="#E9C079" stroke-width="2"/><line x1="217" y1="548" x2="217" y2="555" stroke="#E9C079" stroke-width="2"/><line x1="230" y1="486" x2="230" y2="479" stroke="#E9C079" stroke-width="2"/><line x1="230" y1="548" x2="230" y2="555" stroke="#E9C079" stroke-width="2"/><line x1="243" y1="486" x2="243" y2="479" stroke="#E9C079" stroke-width="2"/><line x1="243" y1="548" x2="243" y2="555" stroke="#E9C079" stroke-width="2"/><line x1="256" y1="486" x2="256" y2="479" stroke="#E9C079" stroke-width="2"/><line x1="256" y1="548" x2="256" y2="555" stroke="#E9C079" stroke-width="2"/><line x1="269" y1="486" x2="269" y2="479" stroke="#E9C079" stroke-width="2"/><line x1="269" y1="548" x2="269" y2="555" stroke="#E9C079" stroke-width="2"/><line x1="282" y1="486" x2="282" y2="479" stroke="#E9C079" stroke-width="2"/><line x1="282" y1="548" x2="282" y2="555" stroke="#E9C079" stroke-width="2"/><line x1="295" y1="486" x2="295" y2="479" stroke="#E9C079" stroke-width="2"/><line x1="295" y1="548" x2="295" y2="555" stroke="#E9C079" stroke-width="2"/><line x1="308" y1="486" x2="308" y2="479" stroke="#E9C079" stroke-width="2"/><line x1="308" y1="548" x2="308" y2="555" stroke="#E9C079" stroke-width="2"/><line x1="321" y1="486" x2="321" y2="479" stroke="#E9C079" stroke-width="2"/><line x1="321" y1="548" x2="321" y2="555" stroke="#E9C079" stroke-width="2"/><line x1="334" y1="486" x2="334" y2="479" stroke="#E9C079" stroke-width="2"/><line x1="334" y1="548" x2="334" y2="555" stroke="#E9C079" stroke-width="2"/><line x1="347" y1="486" x2="347" y2="479" stroke="#E9C079" stroke-width="2"/><line x1="347" y1="548" x2="347" y2="555" stroke="#E9C079" stroke-width="2"/><line x1="360" y1="486" x2="360" y2="479" stroke="#E9C079" stroke-width="2"/><line x1="360" y1="548" x2="360" y2="555" stroke="#E9C079" stroke-width="2"/><line x1="373" y1="486" x2="373" y2="479" stroke="#E9C079" stroke-width="2"/><line x1="373" y1="548" x2="373" y2="555" stroke="#E9C079" stroke-width="2"/><line x1="386" y1="486" x2="386" y2="479" stroke="#E9C079" stroke-width="2"/><line x1="386" y1="548" x2="386" y2="555" stroke="#E9C079" stroke-width="2"/><line x1="399" y1="486" x2="399" y2="479" stroke="#E9C079" stroke-width="2"/><line x1="399" y1="548" x2="399" y2="555" stroke="#E9C079" stroke-width="2"/><line x1="412" y1="486" x2="412" y2="479" stroke="#E9C079" stroke-width="2"/><line x1="412" y1="548" x2="412" y2="555" stroke="#E9C079" stroke-width="2"/><line x1="425" y1="486" x2="425" y2="479" stroke="#E9C079" stroke-width="2"/><line x1="425" y1="548" x2="425" y2="555" stroke="#E9C079" stroke-width="2"/><line x1="438" y1="486" x2="438" y2="479" stroke="#E9C079" stroke-width="2"/><line x1="438" y1="548" x2="438" y2="555" stroke="#E9C079" stroke-width="2"/><line x1="451" y1="486" x2="451" y2="479" stroke="#E9C079" stroke-width="2"/><line x1="451" y1="548" x2="451" y2="555" stroke="#E9C079" stroke-width="2"/><line x1="464" y1="486" x2="464" y2="479" stroke="#E9C079" stroke-width="2"/><line x1="464" y1="548" x2="464" y2="555" stroke="#E9C079" stroke-width="2"/><line x1="477" y1="486" x2="477" y2="479" stroke="#E9C079" stroke-width="2"/><line x1="477" y1="548" x2="477" y2="555" stroke="#E9C079" stroke-width="2"/><line x1="490" y1="486" x2="490" y2="479" stroke="#E9C079" stroke-width="2"/><line x1="490" y1="548" x2="490" y2="555" stroke="#E9C079" stroke-width="2"/><line x1="503" y1="486" x2="503" y2="479" stroke="#E9C079" stroke-width="2"/><line x1="503" y1="548" x2="503" y2="555" stroke="#E9C079" stroke-width="2"/><line x1="516" y1="486" x2="516" y2="479" stroke="#E9C079" stroke-width="2"/><line x1="516" y1="548" x2="516" y2="555" stroke="#E9C079" stroke-width="2"/><line x1="529" y1="486" x2="529" y2="479" stroke="#E9C079" stroke-width="2"/><line x1="529" y1="548" x2="529" y2="555" stroke="#E9C079" stroke-width="2"/><line x1="542" y1="486" x2="542" y2="479" stroke="#E9C079" stroke-width="2"/><line x1="542" y1="548" x2="542" y2="555" stroke="#E9C079" stroke-width="2"/><line x1="555" y1="486" x2="555" y2="479" stroke="#E9C079" stroke-width="2"/><line x1="555" y1="548" x2="555" y2="555" stroke="#E9C079" stroke-width="2"/><line x1="568" y1="486" x2="568" y2="479" stroke="#E9C079" stroke-width="2"/><line x1="568" y1="548" x2="568" y2="555" stroke="#E9C079" stroke-width="2"/><line x1="581" y1="486" x2="581" y2="479" stroke="#E9C079" stroke-width="2"/><line x1="581" y1="548" x2="581" y2="555" stroke="#E9C079" stroke-width="2"/><line x1="594" y1="486" x2="594" y2="479" stroke="#E9C079" stroke-width="2"/><line x1="594" y1="548" x2="594" y2="555" stroke="#E9C079" stroke-width="2"/><line x1="607" y1="486" x2="607" y2="479" stroke="#E9C079" stroke-width="2"/><line x1="607" y1="548" x2="607" y2="555" stroke="#E9C079" stroke-width="2"/><line x1="620" y1="486" x2="620" y2="479" stroke="#E9C079" stroke-width="2"/><line x1="620" y1="548" x2="620" y2="555" stroke="#E9C079" stroke-width="2"/><line x1="633" y1="486" x2="633" y2="479" stroke="#E9C079" stroke-width="2"/><line x1="633" y1="548" x2="633" y2="555" stroke="#E9C079" stroke-width="2"/><line x1="646" y1="486" x2="646" y2="479" stroke="#E9C079" stroke-width="2"/><line x1="646" y1="548" x2="646" y2="555" stroke="#E9C079" stroke-width="2"/><line x1="659" y1="486" x2="659" y2="479" stroke="#E9C079" stroke-width="2"/><line x1="659" y1="548" x2="659" y2="555" stroke="#E9C079" stroke-width="2"/><line x1="672" y1="486" x2="672" y2="479" stroke="#E9C079" stroke-width="2"/><line x1="672" y1="548" x2="672" y2="555" stroke="#E9C079" stroke-width="2"/><line x1="685" y1="486" x2="685" y2="479" stroke="#E9C079" stroke-width="2"/><line x1="685" y1="548" x2="685" y2="555" stroke="#E9C079" stroke-width="2"/><line x1="698" y1="486" x2="698" y2="479" stroke="#E9C079" stroke-width="2"/><line x1="698" y1="548" x2="698" y2="555" stroke="#E9C079" stroke-width="2"/>
  <rect x="100" y="486" width="600" height="62" rx="5" fill="#1F6D6A" />
  <rect x="112" y="495" width="576" height="44" rx="3" fill="none" stroke="#E9C079" stroke-width="3"/>
  <rect x="122" y="502" width="556" height="30" rx="3" fill="none" stroke="#FFF7E8" stroke-width="1.6" opacity=".8"/>
  <g transform="translate(338,517)"><ellipse cx="0" cy="-9.3" rx="4.5" ry="8.25" fill="#E9C079" transform="rotate(0)"/><ellipse cx="0" cy="-9.3" rx="4.5" ry="8.25" fill="#E9C079" transform="rotate(60)"/><ellipse cx="0" cy="-9.3" rx="4.5" ry="8.25" fill="#E9C079" transform="rotate(120)"/><ellipse cx="0" cy="-9.3" rx="4.5" ry="8.25" fill="#E9C079" transform="rotate(180)"/><ellipse cx="0" cy="-9.3" rx="4.5" ry="8.25" fill="#E9C079" transform="rotate(240)"/><ellipse cx="0" cy="-9.3" rx="4.5" ry="8.25" fill="#E9C079" transform="rotate(300)"/><circle r="3.9" fill="#FFF7E8"/></g><g transform="translate(400,517)"><ellipse cx="0" cy="-9.3" rx="4.5" ry="8.25" fill="#E9C079" transform="rotate(0)"/><ellipse cx="0" cy="-9.3" rx="4.5" ry="8.25" fill="#E9C079" transform="rotate(60)"/><ellipse cx="0" cy="-9.3" rx="4.5" ry="8.25" fill="#E9C079" transform="rotate(120)"/><ellipse cx="0" cy="-9.3" rx="4.5" ry="8.25" fill="#E9C079" transform="rotate(180)"/><ellipse cx="0" cy="-9.3" rx="4.5" ry="8.25" fill="#E9C079" transform="rotate(240)"/><ellipse cx="0" cy="-9.3" rx="4.5" ry="8.25" fill="#E9C079" transform="rotate(300)"/><circle r="3.9" fill="#FFF7E8"/></g><g transform="translate(462,517)"><ellipse cx="0" cy="-9.3" rx="4.5" ry="8.25" fill="#E9C079" transform="rotate(0)"/><ellipse cx="0" cy="-9.3" rx="4.5" ry="8.25" fill="#E9C079" transform="rotate(60)"/><ellipse cx="0" cy="-9.3" rx="4.5" ry="8.25" fill="#E9C079" transform="rotate(120)"/><ellipse cx="0" cy="-9.3" rx="4.5" ry="8.25" fill="#E9C079" transform="rotate(180)"/><ellipse cx="0" cy="-9.3" rx="4.5" ry="8.25" fill="#E9C079" transform="rotate(240)"/><ellipse cx="0" cy="-9.3" rx="4.5" ry="8.25" fill="#E9C079" transform="rotate(300)"/><circle r="3.9" fill="#FFF7E8"/></g>
      <rect x="82" y="424" width="152" height="13" rx="5" fill="#8B5E3C" /><path d="M96,437 L100,498 M220,437 L216,498"
                 stroke="#B8862F" stroke-width="7" stroke-linecap="round"/><rect x="124" y="380" width="68" height="40" rx="4" fill="#B4832A" />
    <rect x="129" y="385" width="58" height="30" rx="2" fill="#E9C079" opacity=".55"/>
    <rect x="153" y="418" width="10" height="8" rx="2" fill="#B8862F" />
    <rect x="143" y="420" width="30" height="4" rx="2" fill="#B8862F" />
  <ellipse cx="158" cy="528" rx="30" ry="7" fill="#000" opacity=".09"/>
  <rect x="133" y="418" width="50" height="64" rx="10" fill="#B4832A" />
  <rect x="140" y="426" width="36" height="48" rx="7" fill="none" stroke="#E9C079" stroke-width="2" opacity=".55"/>
  <g transform="translate(158,450)"><ellipse cx="0" cy="-5.58" rx="2.7" ry="4.95" fill="#E9C079" transform="rotate(0)"/><ellipse cx="0" cy="-5.58" rx="2.7" ry="4.95" fill="#E9C079" transform="rotate(60)"/><ellipse cx="0" cy="-5.58" rx="2.7" ry="4.95" fill="#E9C079" transform="rotate(120)"/><ellipse cx="0" cy="-5.58" rx="2.7" ry="4.95" fill="#E9C079" transform="rotate(180)"/><ellipse cx="0" cy="-5.58" rx="2.7" ry="4.95" fill="#E9C079" transform="rotate(240)"/><ellipse cx="0" cy="-5.58" rx="2.7" ry="4.95" fill="#E9C079" transform="rotate(300)"/><circle r="2.34" fill="#B4832A"/></g>
  <rect x="130" y="478" width="56" height="12" rx="5" fill="#6F4A2E" />
  <path d="M137,490 L135,524 M179,490 L181,524"
    stroke="#6F4A2E" stroke-width="6" stroke-linecap="round"/><rect x="272" y="424" width="152" height="13" rx="5" fill="#8B5E3C" /><path d="M286,437 L290,498 M410,437 L406,498"
                 stroke="#B8862F" stroke-width="7" stroke-linecap="round"/><rect x="314" y="380" width="68" height="40" rx="4" fill="#B4832A" />
    <rect x="319" y="385" width="58" height="30" rx="2" fill="#E9C079" opacity=".55"/>
    <rect x="343" y="418" width="10" height="8" rx="2" fill="#B8862F" />
    <rect x="333" y="420" width="30" height="4" rx="2" fill="#B8862F" />
  <ellipse cx="348" cy="528" rx="30" ry="7" fill="#000" opacity=".09"/>
  <rect x="323" y="418" width="50" height="64" rx="10" fill="#B4832A" />
  <rect x="330" y="426" width="36" height="48" rx="7" fill="none" stroke="#E9C079" stroke-width="2" opacity=".55"/>
  <g transform="translate(348,450)"><ellipse cx="0" cy="-5.58" rx="2.7" ry="4.95" fill="#E9C079" transform="rotate(0)"/><ellipse cx="0" cy="-5.58" rx="2.7" ry="4.95" fill="#E9C079" transform="rotate(60)"/><ellipse cx="0" cy="-5.58" rx="2.7" ry="4.95" fill="#E9C079" transform="rotate(120)"/><ellipse cx="0" cy="-5.58" rx="2.7" ry="4.95" fill="#E9C079" transform="rotate(180)"/><ellipse cx="0" cy="-5.58" rx="2.7" ry="4.95" fill="#E9C079" transform="rotate(240)"/><ellipse cx="0" cy="-5.58" rx="2.7" ry="4.95" fill="#E9C079" transform="rotate(300)"/><circle r="2.34" fill="#B4832A"/></g>
  <rect x="320" y="478" width="56" height="12" rx="5" fill="#6F4A2E" />
  <path d="M327,490 L325,524 M369,490 L371,524"
    stroke="#6F4A2E" stroke-width="6" stroke-linecap="round"/><rect x="462" y="424" width="152" height="13" rx="5" fill="#8B5E3C" /><path d="M476,437 L480,498 M600,437 L596,498"
                 stroke="#B8862F" stroke-width="7" stroke-linecap="round"/><rect x="504" y="380" width="68" height="40" rx="4" fill="#B4832A" />
    <rect x="509" y="385" width="58" height="30" rx="2" fill="#E9C079" opacity=".55"/>
    <rect x="533" y="418" width="10" height="8" rx="2" fill="#B8862F" />
    <rect x="523" y="420" width="30" height="4" rx="2" fill="#B8862F" />
  <ellipse cx="538" cy="528" rx="30" ry="7" fill="#000" opacity=".09"/>
  <rect x="513" y="418" width="50" height="64" rx="10" fill="#B4832A" />
  <rect x="520" y="426" width="36" height="48" rx="7" fill="none" stroke="#E9C079" stroke-width="2" opacity=".55"/>
  <g transform="translate(538,450)"><ellipse cx="0" cy="-5.58" rx="2.7" ry="4.95" fill="#E9C079" transform="rotate(0)"/><ellipse cx="0" cy="-5.58" rx="2.7" ry="4.95" fill="#E9C079" transform="rotate(60)"/><ellipse cx="0" cy="-5.58" rx="2.7" ry="4.95" fill="#E9C079" transform="rotate(120)"/><ellipse cx="0" cy="-5.58" rx="2.7" ry="4.95" fill="#E9C079" transform="rotate(180)"/><ellipse cx="0" cy="-5.58" rx="2.7" ry="4.95" fill="#E9C079" transform="rotate(240)"/><ellipse cx="0" cy="-5.58" rx="2.7" ry="4.95" fill="#E9C079" transform="rotate(300)"/><circle r="2.34" fill="#B4832A"/></g>
  <rect x="510" y="478" width="56" height="12" rx="5" fill="#6F4A2E" />
  <path d="M517,490 L515,524 M559,490 L561,524"
    stroke="#6F4A2E" stroke-width="6" stroke-linecap="round"/>
      <g transform="translate(736,498) scale(0.9)">
    <ellipse cx="0" cy="4" rx="34" ry="8" fill="#000" opacity=".10"/>
    <g transform="translate(0,-32)"><path d="M0,0 Q-17.79,-29.55 -52,-34 Q-34.21,-4.45 0,0 Z" fill="#2E4A3B"/><path d="M0,0 Q-23.4,-21.08 -52,-34"
      stroke="#1E3227" stroke-width="1.3" fill="none" opacity=".65"/><path d="M0,0 Q-4.94,-42.63 -38,-70 Q-33.06,-27.37 0,0 Z" fill="#2E4A3B"/><path d="M0,0 Q-17.1,-43.4 -38,-70"
      stroke="#1E3227" stroke-width="1.3" fill="none" opacity=".65"/><path d="M0,0 Q8.76,-49.85 -16,-94 Q-24.76,-44.15 0,0 Z" fill="#2E4A3B"/><path d="M0,0 Q-7.2,-58.28 -16,-94"
      stroke="#1E3227" stroke-width="1.3" fill="none" opacity=".65"/><path d="M0,0 Q20.94,-47.62 8,-98 Q-12.94,-50.38 0,0 Z" fill="#2E4A3B"/><path d="M0,0 Q3.6,-60.76 8,-98"
      stroke="#1E3227" stroke-width="1.3" fill="none" opacity=".65"/><path d="M0,0 Q29.93,-33.26 30,-78 Q0.07,-44.74 0,0 Z" fill="#2E4A3B"/><path d="M0,0 Q13.5,-48.36 30,-78"
      stroke="#1E3227" stroke-width="1.3" fill="none" opacity=".65"/><path d="M0,0 Q34.25,-11.49 50,-44 Q15.75,-32.51 0,0 Z" fill="#2E4A3B"/><path d="M0,0 Q22.5,-27.28 50,-44"
      stroke="#1E3227" stroke-width="1.3" fill="none" opacity=".65"/><path d="M0,0 Q0.11,-31.53 -22,-54 Q-22.11,-22.47 0,0 Z" fill="#2E4A3B"/><path d="M0,0 Q-9.9,-33.48 -22,-54"
      stroke="#1E3227" stroke-width="1.3" fill="none" opacity=".65"/><path d="M0,0 Q21.2,-21.69 20,-52 Q-1.2,-30.31 0,0 Z" fill="#2E4A3B"/><path d="M0,0 Q9,-32.24 20,-52"
      stroke="#1E3227" stroke-width="1.3" fill="none" opacity=".65"/></g>
    <path d="M-26,-30 L26,-30 L20,2 L-20,2 Z" fill="#C44536"/>
    <rect x="-29" y="-36" width="58" height="10" rx="3" fill="#9E3427"/>
    <path d="M-20,-16 L20,-16" stroke="#9E3427" stroke-width="2" opacity=".5"/>
  </g>
      <g transform="translate(58,492) scale(0.7)">
    <ellipse cx="0" cy="4" rx="34" ry="8" fill="#000" opacity=".10"/>
    <g transform="translate(0,-32)"><path d="M0,0 Q-17.79,-29.55 -52,-34 Q-34.21,-4.45 0,0 Z" fill="#2E4A3B"/><path d="M0,0 Q-23.4,-21.08 -52,-34"
      stroke="#1E3227" stroke-width="1.3" fill="none" opacity=".65"/><path d="M0,0 Q-4.94,-42.63 -38,-70 Q-33.06,-27.37 0,0 Z" fill="#2E4A3B"/><path d="M0,0 Q-17.1,-43.4 -38,-70"
      stroke="#1E3227" stroke-width="1.3" fill="none" opacity=".65"/><path d="M0,0 Q8.76,-49.85 -16,-94 Q-24.76,-44.15 0,0 Z" fill="#2E4A3B"/><path d="M0,0 Q-7.2,-58.28 -16,-94"
      stroke="#1E3227" stroke-width="1.3" fill="none" opacity=".65"/><path d="M0,0 Q20.94,-47.62 8,-98 Q-12.94,-50.38 0,0 Z" fill="#2E4A3B"/><path d="M0,0 Q3.6,-60.76 8,-98"
      stroke="#1E3227" stroke-width="1.3" fill="none" opacity=".65"/><path d="M0,0 Q29.93,-33.26 30,-78 Q0.07,-44.74 0,0 Z" fill="#2E4A3B"/><path d="M0,0 Q13.5,-48.36 30,-78"
      stroke="#1E3227" stroke-width="1.3" fill="none" opacity=".65"/><path d="M0,0 Q34.25,-11.49 50,-44 Q15.75,-32.51 0,0 Z" fill="#2E4A3B"/><path d="M0,0 Q22.5,-27.28 50,-44"
      stroke="#1E3227" stroke-width="1.3" fill="none" opacity=".65"/><path d="M0,0 Q0.11,-31.53 -22,-54 Q-22.11,-22.47 0,0 Z" fill="#2E4A3B"/><path d="M0,0 Q-9.9,-33.48 -22,-54"
      stroke="#1E3227" stroke-width="1.3" fill="none" opacity=".65"/><path d="M0,0 Q21.2,-21.69 20,-52 Q-1.2,-30.31 0,0 Z" fill="#2E4A3B"/><path d="M0,0 Q9,-32.24 20,-52"
      stroke="#1E3227" stroke-width="1.3" fill="none" opacity=".65"/></g>
    <path d="M-26,-30 L26,-30 L20,2 L-20,2 Z" fill="#C44536"/>
    <rect x="-29" y="-36" width="58" height="10" rx="3" fill="#9E3427"/>
    <path d="M-20,-16 L20,-16" stroke="#9E3427" stroke-width="2" opacity=".5"/>
  </g>
</svg>